<svg width="16" height="16" viewBox="0 0 16 16" fill="none" xmlns="http://www.w3.org/2000/svg">
<path d="M3.50001 6.5C7.02456 6.5 10.3687 6.5 14 6.5C14 7.83333 14 9.16667 14 10.5H13L13 11C13 11 13 11.064 13 11.5C12.7945 11.5 12.5 11.5 12.5 11.5H12L12 12C12 12 12 12.2882 12 12.5C8.48755 12.5 5.1189 12.5 1.5 12.5C1.5 12.2884 1.5 11.718 1.5 11.5C2.14331 11.5 1.78023 11.5 2.50001 11.5C2.50001 11.2884 2.50001 10.718 2.50001 10.5C2.71161 10.5 3.28201 10.5 3.50001 10.5C3.50001 9.285 3.50001 8.1988 3.50001 6.5Z" fill="white"/>
<path d="M4.00445 2.5C4.36114 2.5 4.63251 2.5 5 2.5C5 2.86273 5 3.12628 5 3.5C5.18137 3.5 5.31314 3.5 5.5 3.5C5.50605 3.68137 5.49377 4.31314 5.5 4.5C6.05317 4.50907 6.68566 4.49075 7.25 4.5C7.25 4.31259 7.25 3.69309 7.25 3.5C7.43741 3.5 7.55691 3.5 7.75 3.5C7.75 3.13727 7.75 2.87372 7.75 2.5C8.5722 2.5 8.05578 2.5 9.75 2.5C9.75 2.86878 9.75 3.12005 9.75 3.5C10.1127 3.5 9.87628 3.5 10.25 3.5C10.25 3.68137 10.25 4.31314 10.25 4.5C11.1327 4.5 11.5453 4.5 12 4.5C12 4.31863 12 3.68686 12 3.5C12.1814 3.5 12.3131 3.5 12.5 3.5C12.5 3.13122 12.5 2.87995 12.5 2.5C12.9353 2.5 13.0515 2.5 13.5 2.5C13.5 2.68137 13.5 2.81314 13.5 3C13.6814 3 13.8131 3 14 3C14 3.72546 14 4.75255 14 5.5C10.4755 5.5 7.13135 5.5 3.5 5.5C3.5 4.77454 3.5 3.74745 3.5 3C3.68137 3 3.81759 3 4.00445 3C4.00445 2.81863 4.00445 2.68686 4.00445 2.5Z" fill="white"/>
<path d="M14 14C13.6229 14 13.7457 14 13.5 14C13.5 14.3376 13.5 14.233 13.5 14.5C10.4064 14.5 7.18486 14.5 3.99787 14.5C3.99787 14.3005 3.99787 14.2055 3.99787 14C3.79233 14 3.71178 14 3.5 14C3.5 13.8126 3.5 13.6931 3.5 13.5C6.5 13.5 10 13.5 13 13.5C13 12.8434 13 13.2407 13 12.5C13.6816 12.5 13.3198 12.5 14 12.5C14 13.4153 14 12.8376 14 14Z" fill="white"/>
<path d="M10.5 1.5C10.8577 1.5 11.3815 1.5 11.75 1.5C11.75 2.20733 11.75 2.77124 11.75 3.5C11.3923 3.5 10.8685 3.5 10.5 3.5C10.5 2.79267 10.5 2.22876 10.5 1.5Z" fill="white"/>
<path d="M5.75 1.5C6.05731 1.5 6.68337 1.5 7 1.5C7 2.20733 7 2.77124 7 3.5C6.69269 3.5 6.06663 3.5 5.75 3.5C5.75 2.79267 5.75 2.22876 5.75 1.5Z" fill="white"/>
</svg>
