<svg width="16" height="16" viewBox="0 0 16 16" fill="none" xmlns="http://www.w3.org/2000/svg">
<path d="M8.29348 0.25C8.48717 0.25 8.68087 0.25 8.88043 0.25C8.88043 0.439444 8.88043 0.628889 8.88043 0.824074C9.07413 0.824074 9.26783 0.824074 9.46739 0.824074C9.46739 3.09741 9.46739 5.37074 9.46739 7.71296C9.66109 7.71296 9.85478 7.71296 10.0543 7.71296C10.0543 5.81852 10.0543 3.92407 10.0543 1.97222C10.248 1.97222 10.4417 1.97222 10.6413 1.97222C10.6413 1.78278 10.6413 1.59333 10.6413 1.39815C10.835 1.39815 11.0287 1.39815 11.2283 1.39815C11.2283 1.58759 11.2283 1.77704 11.2283 1.97222C11.422 1.97222 11.6157 1.97222 11.8152 1.97222C11.8152 4.05611 11.8152 6.14 11.8152 8.28704C12.0089 8.28704 12.2026 8.28704 12.4022 8.28704C12.4022 7.15037 12.4022 6.0137 12.4022 4.84259C12.5959 4.84259 12.7896 4.84259 12.9891 4.84259C12.9891 4.4637 12.9891 4.08481 12.9891 3.69444C13.3765 3.69444 13.7639 3.69444 14.163 3.69444C14.163 3.88389 14.163 4.07333 14.163 4.26852C14.3567 4.26852 14.5504 4.26852 14.75 4.26852C14.75 6.54185 14.75 8.81519 14.75 11.1574C14.5563 11.1574 14.3626 11.1574 14.163 11.1574C14.163 11.7257 14.163 12.2941 14.163 12.8796C13.9693 12.8796 13.7757 12.8796 13.5761 12.8796C13.5761 13.2585 13.5761 13.6374 13.5761 14.0278C13.3824 14.0278 13.1887 14.0278 12.9891 14.0278C12.9891 14.2172 12.9891 14.4067 12.9891 14.6019C12.7954 14.6019 12.6017 14.6019 12.4022 14.6019C12.4022 14.9807 12.4022 15.3596 12.4022 15.75C10.2715 15.75 8.14087 15.75 5.94565 15.75C5.94565 15.3711 5.94565 14.9922 5.94565 14.6019C5.75196 14.6019 5.55826 14.6019 5.3587 14.6019C5.3587 14.4124 5.3587 14.223 5.3587 14.0278C5.165 14.0278 4.9713 14.0278 4.77174 14.0278C4.77174 13.8383 4.77174 13.6489 4.77174 13.4537C4.57804 13.4537 4.38435 13.4537 4.18478 13.4537C4.18478 13.0748 4.18478 12.6959 4.18478 12.3056C3.99109 12.3056 3.79739 12.3056 3.59783 12.3056C3.59783 12.1161 3.59783 11.9267 3.59783 11.7315C3.40413 11.7315 3.21043 11.7315 3.01087 11.7315C3.01087 11.3526 3.01087 10.9737 3.01087 10.5833C2.81717 10.5833 2.62348 10.5833 2.42391 10.5833C2.42391 10.3939 2.42391 10.2044 2.42391 10.0093C2.23022 10.0093 2.03652 10.0093 1.83696 10.0093C1.83696 9.81982 1.83696 9.63037 1.83696 9.43519C1.64326 9.43519 1.44957 9.43519 1.25 9.43519C1.25 9.0563 1.25 8.67741 1.25 8.28704C1.4437 8.28704 1.63739 8.28704 1.83696 8.28704C1.83696 8.09759 1.83696 7.90815 1.83696 7.71296C2.22435 7.71296 2.61174 7.71296 3.01087 7.71296C3.01087 7.90241 3.01087 8.09185 3.01087 8.28704C3.20457 8.28704 3.39826 8.28704 3.59783 8.28704C3.59783 8.47648 3.59783 8.66593 3.59783 8.86111C3.79152 8.86111 3.98522 8.86111 4.18478 8.86111C4.18478 9.05056 4.18478 9.24 4.18478 9.43519C4.37848 9.43519 4.57217 9.43519 4.77174 9.43519C4.77174 9.62463 4.77174 9.81407 4.77174 10.0093C4.96543 10.0093 5.15913 10.0093 5.3587 10.0093C5.3587 7.35704 5.3587 4.70482 5.3587 1.97222C5.55239 1.97222 5.74609 1.97222 5.94565 1.97222C5.94565 1.78278 5.94565 1.59333 5.94565 1.39815C6.13935 1.39815 6.33304 1.39815 6.53261 1.39815C6.53261 1.58759 6.53261 1.77704 6.53261 1.97222C6.7263 1.97222 6.92 1.97222 7.11957 1.97222C7.11957 3.86667 7.11957 5.76111 7.11957 7.71296C7.31326 7.71296 7.50696 7.71296 7.70652 7.71296C7.70652 5.43963 7.70652 3.1663 7.70652 0.824074C7.90022 0.824074 8.09391 0.824074 8.29348 0.824074C8.29348 0.63463 8.29348 0.445185 8.29348 0.25Z" fill="#FEFEFE"/>
</svg>
