<svg width="16" height="16" viewBox="0 0 16 16" fill="none" xmlns="http://www.w3.org/2000/svg">
<path d="M1.4499 1.5C5.33334 1.5 9.21678 1.5 13.1002 1.5C13.1002 2.22779 13.1002 2.95558 13.1002 3.68337C9.49767 3.68337 5.8951 3.68337 2.18337 3.68337C2.18337 4.04363 2.18337 4.40388 2.18337 4.77506C6.2644 4.77506 14.5501 4.77506 14.5501 4.77506H15.2836V5.50853C15.2836 5.50853 15.2573 6.50704 15.2573 7C13.4565 7 12.1225 7 10.5 7C10.5 8.93133 10.5 10.2243 10.5 12C10.9785 12 14.7906 12 15.2836 12C15.2836 12.7233 15.2836 12.4266 15.2836 13.1503C15.0416 13.1503 14.5501 13.1503 14.5501 13.1503H13.8166V13.8668C13.8166 13.8668 13.8166 14.3508 13.8166 14.6002C9.73562 14.6002 5.65459 14.6002 1.4499 14.6002C1.4499 14.3582 1.4499 13.8668 1.4499 13.8668V13.1503H0.716419C0.716419 13.1503 0.243582 13.1503 0 13.1503C0 9.78419 0 6.41804 0 2.9499C0.236418 2.9499 0.716419 2.9499 0.716419 2.9499H1.4499V2.23348C1.4499 2.23348 1.4499 1.74938 1.4499 1.5Z" fill="white"/>
<path d="M15.9995 10.9671H11.6333V8.0501H15.9995V10.9671ZM12.3667 9.1419V10.2337H13.8169V9.1419H12.3667Z" fill="white"/>
</svg>
