<svg width="16" height="16" viewBox="0 0 16 16" fill="none" xmlns="http://www.w3.org/2000/svg">
<g clip-path="url(#clip0_2013_11038)">
<path d="M2.5 0.5C3.26313 0.5 3.71375 0.5 4.5 0.5C4.5 0.876406 4.5 1.11219 4.5 1.5C4.69078 1.5 5.30344 1.5 5.5 1.5C5.5 1.88672 5.5 2.10156 5.5 2.5C5.68563 2.5 5.80875 2.5 6 2.5C6 2.88156 6 3.60688 6 4C6.19078 4 6.30344 4 6.5 4C6.5 4.38156 6.5 4.60688 6.5 5C6.12359 5 5.88781 5 5.5 5C5.5 5.38156 5.5 5.60688 5.5 6C5.11844 6 4 6 4 6V7H4.5V8C4.5 8 4.80344 8 5 8C5 8.57234 5 8.41031 5 9C5.18563 9 5.30875 9 5.5 9C5.5 9.19078 5.5 9.80344 5.5 10C5.88156 10 6.60688 10 7 10C7 10.1908 7 10.3034 7 10.5C7.19078 10.5 7.30344 10.5 7.5 10.5C7.5 10.6908 7.5 10.8034 7.5 11C8.8836 11 9.25788 10.9979 10.5 11C10.5 10.6236 10.5 10 10.5 10H12V10.5H13V11C13 11 14.1122 11 14.5 11C14.5 11.3867 14.5 11.6016 14.5 12C14.8816 12 15.1069 12 15.5 12C15.5 12.3764 15.5 13.1122 15.5 13.5C15.1184 13.5 14.8931 13.5 14.5 13.5C14.5 13.8816 14.5 14.1069 14.5 14.5C14.1184 14.5 13.8931 14.5 13.5 14.5C13.5 14.8816 13.5 15.1069 13.5 15.5C12.7369 15.5 11.7862 15.5 11 15.5C11 15.3092 11 15.1966 11 15C10.6236 15 10.3732 15 9.98541 15C9.98541 14.8092 9.98541 14.6966 9.98541 14.5C9.60385 14.5 8.89312 14.5 8.5 14.5C8.5 14.3092 8.5 14.1966 8.5 14C7.92766 14 7.58969 14 7 14C7 13.8092 7 13.1966 7 13C6.81437 13 6.19125 13 6 13C6 12.8092 6 12.6966 6 12.5C5.61844 12.5 5.39312 12.5 5 12.5C5 12.1184 5 11.8931 5 11.5C4.61844 11.5 4.39312 11.5 4 11.5C4 11.3092 4 11.1966 4 11C3.61844 11 3.39312 11 3 11C3 10.4277 3 10.0897 3 9.5C2.75061 9.5 2 9.5 2 9.5V8.5H1.5C1.5 8.5 1.5 7.46327 1.5 7C1.11844 7 0.893125 7 0.5 7C0.5 5.47891 0.5 4.06719 0.5 2.5C1.40268 2.5 0.911093 2.5 1.5 2.5C1.5 2.30922 1.5 1.69656 1.5 1.5C1.69078 1.5 2.30344 1.5 2.5 1.5C2.5 1.30922 2.5 0.696562 2.5 0.5Z" fill="#FEFEFE"/>
</g>
<defs>
<clipPath id="clip0_2013_11038">
<rect width="16" height="16" fill="white"/>
</clipPath>
</defs>
</svg>
