<svg width="16" height="16" viewBox="0 0 16 16" fill="none" xmlns="http://www.w3.org/2000/svg">
<path d="M7.39844 1.42578H7.97559V4.49121H8.55176V7.07715H9.14551V5.8584H10.2988V5.10059H12.0283V5.8418H13.1982V7.6875H14.5V10.8506C14.2662 10.856 14.0319 10.8616 13.791 10.8672C13.7856 11.2641 13.781 11.6614 13.7754 12.0703H13.1982V12.6963H12.6211V13.5205H12.0283V14.2451H11.4521V15.3164H5.65234V14.2451H5.0752V13.5205H4.49902V12.8936H3.92188V10.8506H3.3457V8.90625H2.75195V7.07715H2.17578V5.8418H1.5V3.86426H2.17578V4.49121H2.75195V5.10059H3.3457V6.46777H3.92188V7.07715H4.48242V8.29688H5.0752V7.07715H4.49902V5.10059H3.92188V3.25488H3.3291V1.42578H4.48242V2.01953H5.0752V3.25488H5.65234V5.10059H6.24512V7.07715H6.82227V3.86426H6.24512V1.42578H6.82227V0.799805H7.39844V1.42578ZM10.2822 7.07715V7.6875H9.70605V9.63184H10.2988V10.8506H12.0293V10.2412H12.6221V8.29688H13.1982V7.7041H12.0293V7.07715H10.2822Z" fill="#FEFEFE"/>
</svg>
