<svg width="16" height="16" viewBox="0 0 16 16" fill="none" xmlns="http://www.w3.org/2000/svg">
<rect x="4.5" y="9.5" width="2" height="2" fill="white"/>
<rect x="5.5" y="8.5" width="2" height="2" fill="white"/>
<rect x="6.5" y="7.5" width="2" height="2" fill="white"/>
<rect x="7.5" y="6.5" width="2" height="2" fill="white"/>
<rect x="8.5" y="5.5" width="2" height="2" fill="white"/>
<rect x="9.5" y="4.5" width="2" height="2" fill="white"/>
<rect x="10.5" y="3.5" width="2" height="2" fill="white"/>
<rect x="3.5" y="10.5" width="2" height="2" fill="white"/>
<rect x="6.5" y="4.5" width="2" height="2" transform="rotate(90 6.5 4.5)" fill="white"/>
<rect x="7.5" y="5.5" width="2" height="2" transform="rotate(90 7.5 5.5)" fill="white"/>
<rect x="8.5" y="6.5" width="2" height="2" transform="rotate(90 8.5 6.5)" fill="white"/>
<rect x="9.5" y="7.5" width="2" height="2" transform="rotate(90 9.5 7.5)" fill="white"/>
<rect x="10.5" y="8.5" width="2" height="2" transform="rotate(90 10.5 8.5)" fill="white"/>
<rect x="11.5" y="9.5" width="2" height="2" transform="rotate(90 11.5 9.5)" fill="white"/>
<rect x="12.5" y="10.5" width="2" height="2" transform="rotate(90 12.5 10.5)" fill="white"/>
<rect x="5.5" y="3.5" width="2" height="2" transform="rotate(90 5.5 3.5)" fill="white"/>
</svg>
