<svg width="32" height="32" viewBox="0 0 32 32" fill="none" xmlns="http://www.w3.org/2000/svg">
<g opacity="0.4" clip-path="url(#clip0_2083_2413)">
<path d="M18.134 2.13289C18.134 4.97675 13.8672 4.97675 13.8672 2.13289C13.8672 -0.710964 18.134 -0.710964 18.134 2.13289Z" fill="white"/>
<path d="M10.1342 5.83919C10.8821 5.40584 11.2947 4.56831 11.1821 3.71201C11.0696 2.8557 10.4529 2.15359 9.61954 1.9307C8.78617 1.70569 7.90069 2.00779 7.37571 2.69116C6.8486 3.37663 6.78816 4.31001 7.21945 5.05793C7.80908 6.07883 9.11333 6.42674 10.1342 5.83919Z" fill="white"/>
<path d="M4.26685 16.0006C4.26685 18.8444 0 18.8444 0 16.0006C0 13.1567 4.26685 13.1567 4.26685 16.0006Z" fill="white"/>
<path d="M2.92379 21.0862C2.17586 21.5175 1.76123 22.3571 1.87371 23.2134C1.9883 24.0676 2.605 24.7718 3.43837 24.9947C4.27174 25.2176 5.15722 24.9176 5.6822 24.2322C6.20723 23.5488 6.26975 22.6155 5.83846 21.8675C5.24883 20.8466 3.94463 20.4966 2.92379 21.0862Z" fill="white"/>
<path d="M8.00005 29.8571C8.74798 30.2884 9.68135 30.228 10.3647 29.703C11.0502 29.1779 11.3502 28.2904 11.1273 27.4571C10.9043 26.6237 10.2001 26.007 9.34598 25.8945C8.48967 25.782 7.65006 26.1966 7.21879 26.9424C6.93545 27.432 6.86044 28.0154 7.00628 28.5613C7.15212 29.1092 7.51044 29.5738 8.00005 29.8571Z" fill="white"/>
<path d="M18.134 29.8673C18.134 32.7111 13.8672 32.7111 13.8672 29.8673C13.8672 27.0234 18.134 27.0234 18.134 29.8673Z" fill="white"/>
<path d="M21.086 29.0761C21.5173 29.824 22.3569 30.2387 23.2132 30.1241C24.0674 30.0116 24.7716 29.3949 24.9945 28.5615C25.2174 27.7281 24.9174 26.8426 24.232 26.3177C23.5486 25.7926 22.6153 25.7301 21.8673 26.1614C21.3777 26.4447 21.0193 26.9114 20.8735 27.4573C20.7276 28.0052 20.8027 28.5865 21.086 29.0761Z" fill="white"/>
<path d="M26.9413 24.7818C27.6892 25.213 28.6226 25.1526 29.3081 24.6255C29.9914 24.1005 30.2935 23.215 30.0685 22.3817C29.8456 21.5483 29.1435 20.9316 28.2872 20.8191C27.4309 20.7066 26.5934 21.1191 26.16 21.867C25.5725 22.8879 25.9225 24.1922 26.9413 24.7818Z" fill="white"/>
<path d="M32.0012 16.0006C32.0012 18.8444 27.7344 18.8444 27.7344 16.0006C27.7344 13.1567 32.0012 13.1567 32.0012 16.0006Z" fill="white"/>
<path d="M26.9412 7.21882C26.1954 7.65009 25.7807 8.48971 25.8933 9.34601C26.0058 10.2002 26.6225 10.9044 27.4558 11.1273C28.2892 11.3502 29.1768 11.0502 29.7018 10.3648C30.2268 9.68144 30.2872 8.74807 29.8559 8.00009C29.5726 7.51048 29.108 7.15216 28.56 7.00628C28.0142 6.86044 27.4308 6.93548 26.9412 7.21882Z" fill="white"/>
<path d="M21.8684 5.83944C22.6164 6.27071 23.5498 6.20821 24.2331 5.68319C24.9186 5.15816 25.2186 4.27272 24.9957 3.43935C24.7727 2.60598 24.0685 1.98926 23.2144 1.8747C22.3581 1.76219 21.5185 2.1768 21.0872 2.92477C20.4976 3.94567 20.8476 5.24987 21.8684 5.83944Z" fill="white"/>
</g>
<defs>
<clipPath id="clip0_2083_2413">
<rect width="32" height="32" fill="white"/>
</clipPath>
</defs>
</svg>
