<svg width="16" height="16" viewBox="0 0 16 16" fill="none" xmlns="http://www.w3.org/2000/svg">
<path d="M6.76758 1.92383H7.29785V2.84863H8V3.61816H8.51367V4.28613H8.87305V4.86816H9.4375V5.62109H9.74609V6.25391H10.2588V6.87012H10.7041V7.14453H11.5088V6.2373H11.9365V5.62109H12.3818V4.71387H12.8096V4.26855H13.2539V3.90918H14.4521V4.26855H15.0176V5.4668H14.4521V5.89453H14.127V6.87012H13.7676V10.0879H13.2539V11.6113H13.6992V12.4844H13.2539V12.8262H12.8262V13.2539H12.3818V13.6992H11.5088V14.127H11.0635V14.5723H10.1904V15H8.87305V14.5723H8.44531V14.127H7.57227V13.6992H6.68262V13.2539H6.25391V12.8096H5.80957V12.4844H5.38184V12.0566H5.07324V11.6113H4.49121V11.166H4.06348V10.7383H3.61816V10.293H3.10547V9.86523H2.74609V9.4209H2.30078V9.14648H1.87305V8.70215H1.44531V8H0.982422V7.14453H1.44531V6.87012H1.85547V7.14453H2.30078V7.55469H2.74609V8H3.10547V8.44531H3.61816V8.71875H4.04688V9.14648H4.49121V9.4209H5.07324V8.70215H4.59375V8.42773H4.06348V7.55469H3.61816V7.14453H3.10547V6.87012H2.74609V6.2373H2.23242V5.62109H1.87305V5.1416H1.44531V4.28613H1.87305V3.90918H2.74609V4.26855H3.10547V4.86816H3.61816V5.62109H4.14941C4.15506 5.82439 4.1602 6.02784 4.16602 6.2373C4.3411 6.24295 4.51687 6.24809 4.69727 6.25391V6.87012H5.36426V7.57227H6.03223V6.87012H5.6377V6.2373H5.07324V5.62109H4.69727V4.85059H4.16602V4.26855H3.61816V3.61816H3.10547V2.84863H2.74609V1.61621H3.61816V1.92383H4.14941V2.21484H4.69727V2.84863H5.07324V3.61816H5.6377V4.28613H6.01465V4.86816H6.54492V5.62109H7.12695V6.25391H8V5.62109H7.48633V4.85059H7.12695V4.26855H6.5625V3.61816H6.03223V2.84863H5.6377V2.21484H5.2998V1.63281H5.6377V1.3252H6.76758V1.92383Z" fill="white"/>
</svg>
