<svg width="16" height="16" viewBox="0 0 16 16" fill="none" xmlns="http://www.w3.org/2000/svg">
<rect width="2" height="6" transform="matrix(-1 0 0 1 2 3)" fill="white"/>
<rect width="15" height="2" transform="matrix(-1 0 0 1 16 8)" fill="white"/>
<rect width="2" height="2" transform="matrix(-1 0 0 1 14 10)" fill="white"/>
<rect width="2" height="2" transform="matrix(-1 0 0 1 14 6)" fill="white"/>
<rect width="2" height="3" transform="matrix(-1 0 0 1 12 11)" fill="white"/>
<rect width="2" height="3" transform="matrix(-1 0 0 1 12 4)" fill="white"/>
<rect width="2" height="2" transform="matrix(-1 0 0 1 10 13)" fill="white"/>
<rect width="2" height="2" transform="matrix(-1 0 0 1 10 3)" fill="white"/>
</svg>
