<svg width="16" height="16" viewBox="0 0 16 16" fill="none" xmlns="http://www.w3.org/2000/svg">
<path d="M5.73339 0.5C5.98789 0.5 6.5 0.5 6.5 0.5V1.11679L6.95023 1.11679C6.95023 1.11679 6.95023 5.27776 6.95023 7.4181C7.14818 7.4181 7.34613 7.4181 7.55008 7.4181C7.55008 6.80747 7.55008 5.58005 7.55008 4.95092C8.38414 4.95092 8.25204 4.95092 9.36677 4.95092C9.36677 5.76509 9.36677 6.57926 9.36677 7.4181C9.57038 7.4181 9.77398 7.4181 9.98376 7.4181C9.98376 6.80747 9.98376 6.19685 9.98376 5.56772C10.5833 5.56772 11.1828 5.56772 11.8005 5.56772C11.8005 6.38188 11.8005 7.19605 11.8005 8.03489C11.9984 8.03489 12.1964 8.03489 12.4003 8.03489C12.4003 7.42427 12.4003 6.81364 12.4003 6.18451C13.2328 6.18451 12.7647 6.18 13.6 6.18C13.6 8.03388 13.6 10.5091 13.6 12.4191C13.4021 12.4191 13.2041 12.4191 13.0002 12.4191C13.0002 12.7162 13.0002 13.0133 13.0002 13.3193C12.8022 13.3193 12.6043 13.3193 12.4003 13.3193C12.4003 13.5614 12.4003 13.8034 12.4003 14.0528C12.2024 14.0528 12.0044 14.0528 11.8005 14.0528C11.8005 14.4104 11.8005 14.768 11.8005 15.1364C10.0019 15.1364 8.2034 15.1364 6.35038 15.1364C6.35038 14.7788 6.35038 14.4212 6.35038 14.0528C6.15243 14.0528 5.95448 14.0528 5.75053 14.0528C5.75053 13.8108 5.75053 13.5687 5.75053 13.3193C5.54692 13.3193 5.34331 13.3193 5.13354 13.3193C5.13354 13.1158 5.13354 12.9122 5.13354 12.7025C4.93559 12.7025 4.73764 12.7025 4.53369 12.7025C4.53369 12.4055 4.53369 12.1084 4.53369 11.8023C4.33574 11.8023 4.13779 11.8023 3.93384 11.8023C3.93384 11.3953 3.93384 10.9882 3.93384 10.5688C3.73023 10.5688 3.52662 10.5688 3.31685 10.5688C3.31685 10.1397 3.31685 9.71057 3.31685 9.26848C3.11324 9.26848 2.90963 9.26848 2.69986 9.26848C2.69986 9.06494 2.69986 8.8614 2.69986 8.65169C2.50191 8.65169 2.30396 8.65169 2.10001 8.65169C2.10001 8.04106 2.10001 7.43043 2.10001 6.8013C2.50156 6.8013 2.90312 6.8013 3.31685 6.8013C3.31685 7.00485 3.31685 7.20839 3.31685 7.4181C3.5148 7.4181 3.71275 7.4181 3.9167 7.4181C3.9167 7.62164 3.9167 7.82518 3.9167 8.03489C4.1203 8.03489 4.32391 8.03489 4.53369 8.03489C4.53369 8.24394 4.53369 8.45298 4.53369 8.66836C4.73164 8.66836 4.92959 8.66836 5.13354 8.66836C5.13354 6.17634 5.13354 3.68433 5.13354 1.11679C5.33149 1.11679 5.52944 1.11679 5.73339 1.11679C5.73339 0.913252 5.73339 0.70971 5.73339 0.5Z" fill="#FDFDFD"/>
</svg>
