<svg width="16" height="16" viewBox="0 0 16 16" fill="none" xmlns="http://www.w3.org/2000/svg">
<path d="M13 1.5C13.8333 1.5 14.6667 1.5 15.5 1.5V2.15217C15.5 2.15217 15.5 2.77826 15.5 3C15.2848 3 15.2217 3 15 3C15 3.43043 15 3.55652 15 4C14.7848 4 14.2217 4 14 4C14 4.21522 14 5.27826 14 5.5C13.3327 5.5 13.6675 5.5 13 5.5C13 5.71522 13 6.27826 13 6.5C12.7848 6.5 12.7217 6.5 12.5 6.5C12.5 6.93043 12.5 7.05652 12.5 7.5C12.2848 7.5 11.7217 7.5 11.5 7.5C11.5 7.71522 11.5 8.77826 11.5 9C10.8343 9 11.1661 9 10.5 9C10.5 9.21522 10.5 10.2783 10.5 10.5C10.2848 10.5 9.72174 10.5 9.5 10.5C9.5 10.9304 9.5 11.5565 9.5 12C8.82765 12 9.17632 12 8.5 12C8.5 12.4304 8.5 13.0565 8.5 13.5C8.28478 13.5 8.22174 13.5 8 13.5C8 13.7152 8 14.2783 8 14.5C7.82609 14.5 7.02174 14.5 7.02174 14.5C7.02174 12.1666 7 9.83321 7 7.5C6.78478 7.5 6.72174 7.5 6.5 7.5C6.5 7.28478 6.5 6.72174 6.5 6.5C6.06957 6.5 5.44348 6.5 5 6.5C5 6.28478 5 6.22174 5 6C4.35435 6 3.66522 6 3 6C3 5.78478 3 5.72174 3 5.5C2.35435 5.5 2.16522 5.5 1.5 5.5C1.5 5.28478 1.5 5.22174 1.5 5C1.28478 5 0.721739 5 0.5 5C0.5 4.78478 0.5 4.22174 0.5 4C0.930435 4 1.55652 4 2 4C2 3.78478 2 3.72174 2 3.5C3.2913 3.5 4.16957 3.5 5.5 3.5C5.5 3.28478 5.5 3.22174 5.5 3C6.7913 3 8.16957 3 9.5 3C9.5 2.78478 9.5 2.22174 9.5 2C10.5761 2 11.8913 2 13 2C13 1.78478 13 1.72174 13 1.5Z" fill="white"/>
</svg>
