<svg width="16" height="16" viewBox="0 0 16 16" fill="none" xmlns="http://www.w3.org/2000/svg">
<g clip-path="url(#clip0_2013_11075)">
<path fill-rule="evenodd" clip-rule="evenodd" d="M10.207 4.91211H11.3105V5.45801H11.8623V6.5498H12.4141V9.48438H12.5859V12.4004H13.293V13.1006H14V14.584H13.293V15.2832H12.5859V16H3.41406V15.2832H2.70703V14.584H2V13.1006H2.70703V12.4004H3.41406V9.48438H3.58594V6.5498H4.1377V5.45801H4.68945V4.91211H5.79297V4.36719H10.207V4.91211ZM9.06934 7.0957V13.1006H10.4824V9.48438H10.207V7.0957H9.06934Z" fill="white"/>
<path d="M7.25 -3.8147e-06C7.745 -3.8147e-06 8.24 -3.8147e-06 8.75 -3.8147e-06C8.75 0.989996 8.75 1.98 8.75 3C8.255 3 7.76 3 7.25 3C7.25 2.01 7.25 1.02 7.25 -3.8147e-06Z" fill="white"/>
<rect x="1" y="2" width="1.5" height="1.5" fill="white"/>
<rect x="2.5" y="3.5" width="1.5" height="1.5" fill="white"/>
<rect x="13.5" y="2" width="1.5" height="1.5" fill="white"/>
<rect x="12" y="3.5" width="1.5" height="1.5" fill="white"/>
</g>
<defs>
<clipPath id="clip0_2013_11075">
<rect width="16" height="16" fill="white"/>
</clipPath>
</defs>
</svg>
