<svg width="16" height="16" viewBox="0 0 16 16" fill="none" xmlns="http://www.w3.org/2000/svg">
<g clip-path="url(#clip0_2013_11075)">
<path d="M10 5H11V6H12V7H12.5V12.5H13V13.5H14V14.5H13V15.5H12V16H4V15.5H3V14.5H2V13.5H3V12.5H3.5V7H4V6H5V5H6V4H10V5ZM9 7V13H10.5V9.5C10.4062 9.5 10.091 9.48438 10 9.48438V7H9Z" fill="white"/>
<path d="M7.25 0C7.745 0 8.24 0 8.75 0C8.75 0.99 8.75 1.98 8.75 3C8.255 3 7.76 3 7.25 3C7.25 2.01 7.25 1.02 7.25 0Z" fill="white"/>
<rect x="1" y="2" width="1.5" height="1.5" fill="white"/>
<rect x="2.5" y="3.5" width="1.5" height="1.5" fill="white"/>
<rect x="13.5" y="2" width="1.5" height="1.5" fill="white"/>
<rect x="12" y="3.5" width="1.5" height="1.5" fill="white"/>
</g>
<defs>
<clipPath id="clip0_2013_11075">
<rect width="16" height="16" fill="white"/>
</clipPath>
</defs>
</svg>
