<svg width="16" height="16" viewBox="0 0 16 16" fill="none" xmlns="http://www.w3.org/2000/svg">
<g clip-path="url(#clip0_2095_3747)">
<path d="M11 2.5H13V3.5H14V5H14.5V8H14V9.5H13V10.5H12V11.2344H11V12.2969H10V13.3594H9V14.4375H8V14.9688H7V13.375H8V12.2969H8.5V11.2344H5V10.5H3V9.5H2V8H1.5V5H2V3.5H3V2.5H5V1.5H11V2.5ZM4 7.5H6V5.5H4V7.5ZM6.95605 7.5H8.95605V5.5H6.95605V7.5ZM10.0869 5.5V7.5H12.0869V5.5H10.0869Z" fill="#FEFEFE"/>
</g>
<defs>
<clipPath id="clip0_2095_3747">
<rect width="16" height="16" fill="white"/>
</clipPath>
</defs>
</svg>
