<svg width="16" height="16" viewBox="0 0 16 16" fill="none" xmlns="http://www.w3.org/2000/svg">
<path d="M4 10C4.33 10 4.66 10 5 10C5 10.33 5 10.66 5 11C5.33 11 5.66 11 6 11C6 11.33 6 11.66 6 12C7.32 12 8.64 12 10 12C10 11.67 10 11.34 10 11C10.33 11 11.16 11 11.5 11C11.5 10.67 11.5 10.34 11.5 10C12.49 10 12.98 10 14 10C14 10.1662 14 10.5 14 10.5H14.5V11C14.5 11 14.8313 11 15 11C15 12.32 15 13.64 15 15C10.38 15 5.76 15 1 15C1 14.34 1 13.68 1 13C1.33 13 1.66 13 2 13C2 12.67 2 12.34 2 12C2.33 12 2.66 12 3 12C3 11.67 3 11.34 3 11C3.33 11 3.66 11 4 11C4 10.67 4 10.34 4 10Z" fill="white"/>
<path d="M6.5 4C7.325 4 8.15 4 9 4C9 4.165 9 4.33 9 4.5C9.66 4.5 10.32 4.5 11 4.5C11 4.665 11 4.83 11 5C11.66 5 12.32 5 13 5C13 5.33 13 5.66 13 6C12.835 6 12.67 6 12.5 6C12.5 6.33 12.5 6.66 12.5 7C12.335 7 12.17 7 12 7C12 7.33 12 7.66 12 8C11.835 8 11.67 8 11.5 8C11.5 8.33 11.5 8.66 11.5 9C11.17 9 10.84 9 10.5 9C10.5 9.33 10.5 9.66 10.5 10C10.005 10 9.51 10 9 10C9 10.33 9 10.66 9 11C8.34 11 7.68 11 7 11C7 10.67 7 10.34 7 10C6.67 10 6.34 10 6 10C6 9.67 6 9.34 6 9C5.835 9 5.67 9 5.5 9C5.5 8.34 5.5 7.68 5.5 7C5.665 7 5.83 7 6 7C6 6.34 6 5.68 6 5C6.165 5 6.33 5 6.5 5C6.5 4.67 6.5 4.34 6.5 4Z" fill="white"/>
<path d="M9 1C10.155 1 11.31 1 12.5 1C12.5 1.165 12.5 1.33 12.5 1.5C12.665 1.5 12.83 1.5 13 1.5C13 1.665 13 1.83 13 2C13.165 2 13.33 2 13.5 2C13.5 2.66 13.5 3.32 13.5 4C12.675 4 11.85 4 11 4C11 3.835 11 3.67 11 3.5C10.34 3.5 9.68 3.5 9 3.5C9 3.335 9 3.17 9 3C8.175 3 7.35 3 6.5 3C6.5 2.835 6.5 2.67 6.5 2.5C5.84 2.5 5.18 2.5 4.5 2.5C4.5 2.17 4.5 1.84 4.5 1.5C5.325 1.5 6.15 1.5 7 1.5C7 1.665 7 1.83 7 2C7.33 2 7.66 2 8 2C8 1.835 8 1.67 8 1.5C8.33 1.5 8.66 1.5 9 1.5C9 1.335 9 1.17 9 1Z" fill="white"/>
</svg>
