<svg preserveAspectRatio="none" width="100%" height="100%" overflow="visible" style="display: block;" viewBox="0 0 65.0205 69.999" fill="none" xmlns="http://www.w3.org/2000/svg">
<path id="Subtract" d="M45.0068 2.53809H49.9854V7.51758H52.5234V12.4961H54.9648V17.5732H57.5029V22.5518H60.041V25.0908H42.5654V27.5312H60.041V32.5098H62.4814V52.5234H65.0205V67.5586H62.4814V69.999H35.0488V32.5098H32.5098V24.9932H42.4678V22.5518H32.5098V20.0137H30.0693V17.5732H27.5312V20.1113H29.9717V37.5869H32.5098V67.5586H29.9717V69.999H20.0137V67.5586H12.4961V69.999H2.53809V67.5586H4.97949V65.0205H7.51758V62.5791H10.0557V60.041H12.4961V57.5029H15.0352V60.041H20.0137V57.6006H17.4756V55.0625H15.0352V45.0068H17.4756V24.9932H20.0137V7.51758H22.4541V5.07617H20.0137V2.53809H17.4756V22.5518H15.0352V42.5654H12.4961V55.0625H10.0557V57.6006H7.51758V60.041H5.07617V62.5791H2.53809V65.0205H0V57.5029H2.53809V40.0273H4.97949C4.97928 39.8405 4.97874 39.6535 4.97852 39.4609C4.97654 37.7039 4.97459 35.9465 4.97363 34.1895C4.97313 33.2861 4.97279 32.3828 4.97168 31.4795C4.97071 30.6924 4.96994 29.9053 4.96973 29.1182C4.9696 28.7012 4.96946 28.2842 4.96875 27.8672C4.96809 27.4751 4.96763 27.0825 4.96777 26.6904C4.96775 26.5462 4.96815 26.402 4.96777 26.2578C4.96729 26.0616 4.96659 25.8651 4.9668 25.6689C4.96671 25.5591 4.96689 25.4492 4.9668 25.3359C4.97879 25.091 4.97899 25.0903 5.07617 24.9932C5.25714 24.9846 5.43895 24.9825 5.62012 24.9834C5.71897 24.9836 5.81807 24.9841 5.91992 24.9844C6.10934 24.9857 6.10956 24.985 6.30273 24.9863C6.70344 24.9883 7.10473 24.9911 7.51758 24.9932V22.5518H9.95801V20.0137H12.4961V15.0352H15.0352V10.0557H12.4961V12.5938H10.0557V17.5732H4.97949V15.0352H2.53809V12.5938H0V10.0557H2.53809V7.51758H4.97949V5.07617H7.51758V2.53809H10.0557V0H45.0068V2.53809ZM20.0137 62.4814H22.5518V65.0205H24.9932V67.5586H29.9717V65.0205H27.5312V62.5791H24.9932V60.041H20.0137V62.4814ZM24.9932 17.5732H27.5312V12.5938H24.9932V17.5732ZM22.5518 7.61523V12.4961H24.9932V7.61523H22.5518Z" fill="#0F1215"/>
</svg>
