<svg width="16" height="16" viewBox="0 0 16 16" fill="none" xmlns="http://www.w3.org/2000/svg">
<path d="M2.57652 1.80056C2.98416 1.80056 3.29429 1.80056 3.71429 1.80056C3.71429 2.21511 3.71429 2.62966 3.71429 3.05677C3.92156 3.05677 4.22635 3.05677 4.43991 3.05677C4.44681 3.26405 4.45372 3.82216 4.46084 4.03571C5.09303 4.04608 5.09303 4.02514 5.73799 4.03571C5.73799 3.82153 5.73799 3.27745 5.73799 3.05677C5.95218 3.05677 6.35076 3.05677 6.57143 3.05677C6.57143 2.64222 6.57143 2.22767 6.57143 1.80056C7.51108 1.80056 7.88902 1.80056 8.85715 1.80056C8.85715 2.22202 8.85715 2.64348 8.85715 3.07771C9.06442 3.07771 9.64901 3.07771 9.86257 3.07771C9.86257 3.28499 9.86257 3.82216 9.86257 4.03571C10.3669 4.03571 10.8713 4.03571 11.391 4.03571C11.391 3.82844 11.391 3.29127 11.391 3.07771C11.5982 3.07771 12.0722 3.07771 12.2857 3.07771C12.2857 2.65625 12.2857 2.23479 12.2857 1.80056C12.7832 1.80056 13.014 1.80056 13.5265 1.80056C13.5265 2.00783 13.5265 2.33644 13.5265 2.55C13.7338 2.55 13.7864 2.55 14 2.55C14 3.3791 14 4.08687 14 4.9411C9.97194 4.9411 6.15012 4.9411 2 4.9411C2 4.11199 2 3.40422 2 2.55C2.20728 2.55 2.36296 2.55 2.57652 2.55C2.57652 2.34272 2.57652 2.01411 2.57652 1.80056Z" fill="white"/>
<path d="M9.88351 0.607147C10.3741 0.607147 10.8646 0.607147 11.37 0.607147C11.37 1.41552 11.37 2.2239 11.37 3.05677C10.8795 3.05677 10.3889 3.05677 9.88351 3.05677C9.88351 2.24839 9.88351 1.44002 9.88351 0.607147Z" fill="white"/>
<path d="M4.46084 0.607147C4.8823 0.607147 5.30376 0.607147 5.73799 0.607147C5.73799 1.41552 5.73799 2.2239 5.73799 3.05677C5.31653 3.05677 4.89507 3.05677 4.46084 3.05677C4.46084 2.24839 4.46084 1.44002 4.46084 0.607147Z" fill="white"/>
<path d="M14 13.75H12.8574V14.8926H3.14258V13.75H2V5.75H14V13.75ZM3.42871 12.8926H5.71387V10.6074H3.42871V12.8926ZM6.85742 12.8926H9.14258V10.6074H6.85742V12.8926ZM3.42871 9.46387H5.71387V7.17871H3.42871V9.46387ZM6.85742 9.46387H9.14258V7.17871H6.85742V9.46387ZM10.2861 7.17871V9.46387H12.5713V7.17871H10.2861Z" fill="white"/>
</svg>
